<?xml version="1.0" standalone="no"?>
<!DOCTYPE svg PUBLIC "-//W3C//DTD SVG 20010904//EN"
 "http://www.w3.org/TR/2001/REC-SVG-20010904/DTD/svg10.dtd">
<svg version="1.0" xmlns="http://www.w3.org/2000/svg"
 width="512.000000pt" height="512.000000pt" viewBox="0 0 512.000000 512.000000"
 preserveAspectRatio="xMidYMid meet">

<g transform="translate(0.000000,512.000000) scale(0.100000,-0.100000)"
fill="#000000" stroke="none">
<path d="M2355 5064 c-16 -2 -70 -9 -120 -15 -985 -120 -1825 -850 -2090
-1813 -140 -514 -112 -1082 80 -1572 321 -821 1041 -1409 1916 -1564 174 -31
541 -39 719 -16 485 64 897 238 1265 533 495 396 812 952 912 1593 23 145 25
548 4 685 -84 559 -304 1016 -672 1400 -393 408 -876 659 -1445 750 -94 15
-498 29 -569 19z m535 -28 c363 -50 743 -192 1038 -389 616 -413 1001 -1033
1103 -1777 17 -121 17 -476 1 -600 -77 -577 -324 -1078 -732 -1479 -376 -370
-849 -604 -1390 -688 -161 -25 -548 -25 -708 0 -546 87 -1021 326 -1402 707
-1005 1003 -967 2648 83 3598 411 373 906 589 1467 642 123 11 406 4 540 -14z"/>
<path d="M2656 4853 c-6 -14 -5 -15 5 -6 7 7 10 15 7 18 -3 3 -9 -2 -12 -12z"/>
<path d="M2585 4850 c-3 -5 1 -10 10 -10 9 0 13 5 10 10 -3 6 -8 10 -10 10 -2
0 -7 -4 -10 -10z"/>
<path d="M1840 4835 c-10 -12 -6 -32 25 -118 41 -110 48 -122 63 -113 9 6 -52
222 -67 239 -5 4 -14 1 -21 -8z"/>
<path d="M2490 4833 c0 -13 29 -38 35 -31 3 3 -4 13 -15 23 -11 10 -20 13 -20
8z"/>
<path d="M2664 4813 l-18 -28 24 16 c26 17 38 39 22 39 -5 0 -18 -12 -28 -27z"/>
<path d="M3111 4816 c-14 -16 11 -42 30 -31 6 4 15 1 20 -6 6 -10 11 -11 19
-3 14 14 2 44 -16 37 -8 -3 -20 0 -28 6 -10 8 -16 8 -25 -3z"/>
<path d="M1947 4791 c-7 -27 24 -37 40 -15 10 14 10 19 0 26 -20 13 -34 9 -40
-11z"/>
<path d="M2440 4797 c0 -20 38 -52 100 -84 l55 -28 63 33 c58 31 102 75 89 88
-8 8 -59 -20 -81 -45 -25 -27 -36 -27 -36 2 0 13 -5 28 -12 35 -31 31 -80 -8
-58 -47 13 -26 13 -52 -1 -29 -11 20 -97 88 -110 88 -5 0 -9 -6 -9 -13z"/>
<path d="M2120 4761 c-24 -46 -6 -91 37 -91 32 0 29 -10 -17 -55 -40 -39 -43
-55 -10 -55 22 0 77 61 86 96 8 33 -2 83 -23 106 -21 24 -60 23 -73 -1z m58
-38 c2 -8 -5 -13 -17 -13 -12 0 -21 6 -21 16 0 18 31 15 38 -3z"/>
<path d="M3000 4751 c-35 -66 27 -112 170 -127 47 -5 59 -3 83 16 20 16 27 30
27 56 0 29 -3 35 -17 32 -13 -3 -17 -12 -16 -31 1 -21 -4 -28 -22 -33 -28 -7
-129 13 -169 33 -24 12 -27 19 -22 44 7 34 -17 41 -34 10z"/>
<path d="M3479 4732 c-20 -50 -69 -186 -69 -189 0 -2 6 -3 14 -3 12 0 96 175
96 200 0 4 -7 11 -15 14 -11 4 -19 -3 -26 -22z"/>
<path d="M2006 4714 c-3 -9 3 -27 14 -41 18 -23 18 -28 5 -53 -8 -15 -26 -42
-41 -59 -22 -27 -24 -32 -9 -37 33 -13 95 71 95 129 0 24 -34 77 -50 77 -4 0
-11 -7 -14 -16z"/>
<path d="M1660 4636 c0 -14 8 -29 18 -35 15 -9 14 -13 -17 -44 -40 -42 -143
-91 -171 -82 -11 4 -20 15 -20 27 0 29 -24 17 -28 -14 -4 -35 40 -70 77 -62
46 10 131 57 166 91 48 47 45 106 -5 133 -17 9 -20 8 -20 -14z"/>
<path d="M1795 4643 c-4 -12 1 -23 14 -32 29 -19 26 -51 -10 -101 -31 -42 -29
-70 4 -57 24 9 70 112 62 139 -18 60 -56 87 -70 51z"/>
<path d="M3545 4650 c-4 -7 -3 -16 3 -22 14 -14 45 -2 40 15 -6 16 -34 21 -43
7z"/>
<path d="M1520 4640 c0 -5 -9 -10 -20 -10 -13 0 -20 -7 -20 -20 0 -24 35 -28
44 -4 4 9 13 14 21 10 10 -4 15 1 15 14 0 13 -7 20 -20 20 -11 0 -20 -4 -20
-10z"/>
<path d="M3351 4641 c-7 -5 -11 -17 -7 -27 3 -11 2 -24 -2 -31 -10 -15 -75
-43 -102 -43 -11 0 -20 -4 -20 -9 0 -26 53 -30 95 -9 45 23 65 51 65 90 0 39
-5 44 -29 29z"/>
<path d="M3543 4563 c-7 -2 -13 -18 -13 -34 0 -25 -6 -33 -35 -45 -19 -7 -48
-14 -65 -14 -32 0 -38 -11 -16 -29 26 -22 126 11 146 48 12 23 14 81 3 80 -5
0 -14 -3 -20 -6z"/>
<path d="M3632 4507 c-28 -30 -28 -53 0 -68 22 -12 22 -12 3 -20 -11 -4 -39
-8 -63 -8 -36 -1 -43 -4 -40 -18 3 -14 13 -18 45 -17 56 1 96 19 116 53 43 73
-7 136 -61 78z m46 -30 c4 -19 -6 -21 -27 -8 -16 10 -5 34 12 28 7 -2 13 -11
15 -20z"/>
<path d="M1210 4430 c0 -13 7 -20 20 -20 13 0 20 7 20 20 0 13 -7 20 -20 20
-13 0 -20 -7 -20 -20z"/>
<path d="M1296 4383 c-5 -11 -1 -22 11 -30 39 -27 42 -33 36 -66 -3 -17 -12
-44 -19 -59 -18 -35 -18 -38 7 -38 25 0 49 53 49 110 0 33 -6 48 -29 71 -34
33 -46 36 -55 12z"/>
<path d="M3790 4355 c0 -8 7 -15 16 -15 12 0 14 -5 9 -17 -25 -58 -10 -98 48
-133 82 -51 192 6 127 65 -11 10 -20 22 -20 27 0 14 43 9 62 -8 14 -14 20 -14
33 -4 14 12 14 15 -1 31 -33 36 -134 15 -134 -29 0 -9 12 -29 27 -44 27 -28
27 -28 4 -28 -33 0 -90 29 -107 56 -17 24 -10 49 21 74 23 19 0 40 -46 40 -28
0 -39 -4 -39 -15z"/>
<path d="M961 4322 c-8 -16 5 -33 78 -106 70 -69 90 -84 95 -71 4 12 -18 43
-76 106 -45 49 -83 89 -84 89 -2 0 -8 -8 -13 -18z"/>
<path d="M1169 4290 c-1 -5 -2 -15 -3 -20 -1 -6 10 -16 24 -23 31 -16 37 -53
16 -113 -15 -45 -15 -45 7 -42 16 2 25 15 35 52 19 65 4 119 -38 141 -34 18
-40 18 -41 5z"/>
<path d="M4205 4138 c-75 -82 -86 -98 -62 -98 12 0 167 150 167 162 0 3 -7 8
-15 11 -9 4 -41 -23 -90 -75z"/>
<path d="M955 4168 c-41 -23 -47 -66 -15 -98 11 -11 20 -23 20 -28 0 -15 -42
-33 -62 -26 -18 5 -19 3 -13 -24 7 -35 -1 -55 -57 -129 -39 -54 -70 -67 -96
-41 -9 9 -15 9 -23 1 -14 -14 31 -63 57 -63 45 0 132 95 155 169 7 22 23 44
42 56 32 20 107 112 107 130 0 6 -4 16 -9 24 -8 12 -15 8 -36 -17 -16 -20 -36
-32 -51 -32 -31 0 -30 14 1 46 35 35 22 56 -20 32z"/>
<path d="M4093 4139 l-12 -32 -66 5 c-52 5 -65 3 -65 -8 0 -8 12 -19 26 -24
74 -29 164 12 164 74 0 29 -35 17 -47 -15z"/>
<path d="M4316 4012 c-25 -48 -42 -56 -64 -34 -11 11 -24 27 -29 36 -10 19
-43 12 -43 -9 0 -24 41 -65 66 -65 19 0 24 -5 24 -26 0 -15 12 -38 29 -55 25
-24 34 -28 54 -20 39 15 167 112 161 122 -11 19 -38 7 -101 -43 l-65 -52 -19
25 c-25 32 -24 37 11 92 36 56 36 57 10 57 -11 0 -26 -12 -34 -28z"/>
<path d="M738 3992 c-10 -2 -18 -12 -18 -23 0 -10 -6 -19 -14 -19 -9 0 -12 -7
-9 -21 4 -12 11 -18 20 -15 8 3 17 6 19 6 2 0 4 7 4 15 0 7 6 18 14 22 18 11
5 40 -16 35z"/>
<path d="M4453 3855 c-39 -30 -74 -63 -78 -75 -8 -24 15 -64 44 -80 11 -5 22
-23 26 -40 4 -16 12 -31 18 -31 44 -5 79 24 75 60 -3 22 -9 26 -43 29 -22 2
-48 11 -57 19 -33 29 -21 51 52 100 67 44 82 65 49 70 -8 1 -46 -22 -86 -52z
m49 -187 c-15 -15 -26 -4 -18 18 5 13 9 15 18 6 9 -9 9 -15 0 -24z"/>
<path d="M680 3735 c0 -16 46 -65 60 -65 11 0 21 30 14 42 -3 5 -17 7 -30 4
-17 -5 -24 -2 -24 8 0 8 -4 18 -10 21 -5 3 -10 -1 -10 -10z"/>
<path d="M400 3699 c0 -12 -10 -37 -21 -56 -16 -25 -19 -37 -10 -46 6 -6 12
-9 14 -6 27 41 47 93 42 109 -8 26 -25 26 -25 -1z"/>
<path d="M440 3627 c0 -20 14 -30 98 -66 53 -24 103 -45 110 -48 6 -3 12 2 12
11 0 10 -39 35 -110 71 -106 53 -110 54 -110 32z"/>
<path d="M4561 3509 c-19 -7 -22 -15 -19 -39 6 -37 -4 -37 -61 -5 -52 30 -51
30 -51 4 0 -15 14 -27 55 -45 48 -22 60 -24 87 -15 64 23 91 78 49 101 -23 12
-28 12 -60 -1z m43 -27 c2 -4 0 -14 -5 -22 -8 -13 -10 -13 -19 0 -5 8 -10 18
-10 23 0 10 28 9 34 -1z"/>
<path d="M500 3476 c0 -20 20 -31 48 -27 26 3 27 -1 7 -39 -11 -21 -23 -30
-40 -30 -29 0 -34 -24 -8 -38 15 -9 15 -14 3 -51 -7 -23 -18 -46 -25 -51 -7
-6 -43 1 -104 20 -91 28 -92 28 -89 7 2 -17 18 -26 78 -44 41 -13 93 -22 115
-21 36 3 42 7 60 43 10 22 19 55 19 72 0 18 4 33 9 33 4 0 15 17 23 37 12 28
13 42 5 60 -17 37 -101 61 -101 29z"/>
<path d="M4675 3407 c-107 -49 -101 -45 -88 -58 7 -7 44 3 116 32 86 34 105
45 96 56 -16 18 -23 17 -124 -30z"/>
<path d="M662 3412 c-17 -12 -4 -44 17 -40 17 4 22 39 6 45 -5 1 -16 -1 -23
-5z"/>
<path d="M618 3319 c-10 -6 -15 -16 -11 -25 3 -9 1 -19 -6 -23 -6 -4 -9 -15
-5 -24 5 -13 10 -14 25 -7 11 6 16 16 12 26 -3 9 0 20 7 24 20 12 -1 41 -22
29z"/>
<path d="M2098 3191 c-37 -39 -95 -90 -130 -115 -34 -25 -80 -58 -100 -72 -20
-15 -34 -32 -31 -37 3 -6 2 -7 -4 -4 -6 4 -34 -5 -62 -19 -29 -13 -56 -22 -61
-19 -4 3 -11 -1 -13 -7 -4 -10 -8 -9 -17 2 -9 12 -10 10 -6 -12 4 -16 2 -28
-4 -28 -5 0 -10 -11 -10 -25 0 -18 4 -23 16 -18 12 4 15 2 12 -8 -5 -12 -36
-14 -47 -3 -11 10 -8 61 3 60 6 0 11 4 11 9 0 6 -6 9 -12 9 -7 -1 -13 3 -13 9
0 6 -3 8 -6 5 -5 -6 -54 23 -211 122 -29 18 -53 37 -53 42 0 5 -4 7 -9 3 -5
-3 -12 -1 -15 4 -7 11 -102 61 -116 61 -5 0 -10 -5 -10 -11 0 -5 4 -8 9 -5 12
8 68 -77 76 -115 4 -18 2 -36 -5 -44 -7 -9 -8 -15 -2 -15 14 0 22 -39 12 -63
-5 -12 -9 -16 -9 -9 -1 6 -8 12 -16 12 -8 0 -15 9 -15 20 0 11 -4 20 -10 20
-16 0 -11 -47 6 -54 8 -3 13 -10 9 -16 -3 -5 6 -28 20 -50 22 -35 29 -39 41
-29 12 10 17 8 29 -7 17 -23 17 -25 6 -43 -8 -12 -11 -9 -17 13 -4 18 -10 24
-16 18 -13 -13 -38 -4 -38 14 0 8 -4 14 -10 14 -5 0 -10 7 -10 15 0 16 -29 10
-42 -9 -4 -6 -8 -1 -8 12 0 12 -4 22 -10 22 -5 0 -10 -12 -10 -27 0 -14 -3
-24 -6 -20 -11 10 -54 -62 -54 -91 0 -19 -3 -23 -9 -13 -7 11 -9 11 -13 0 -3
-9 -6 -8 -11 4 -4 11 -1 17 8 17 11 0 15 12 15 41 0 23 4 38 9 34 12 -7 31 27
30 52 0 16 -1 16 -9 -2 -4 -11 -19 -30 -34 -42 -14 -12 -23 -29 -20 -36 3 -8
-2 -17 -10 -20 -9 -4 -16 -16 -16 -28 0 -12 -5 -19 -12 -16 -8 2 -12 20 -11
48 1 26 -2 36 -5 24 -11 -33 -29 -27 -37 11 -3 20 -4 39 -1 42 3 3 6 -3 6 -12
0 -23 22 -15 26 9 4 28 -7 75 -17 70 -4 -3 -6 -12 -2 -20 3 -10 1 -13 -9 -10
-15 6 -49 -59 -64 -120 -7 -27 -6 -29 9 -17 14 12 15 10 6 -22 -6 -20 -7 -40
-4 -46 3 -5 -2 -13 -11 -18 -15 -8 -16 -17 -7 -60 6 -31 6 -53 1 -54 -5 -2 0
-16 12 -31 12 -15 25 -25 30 -22 4 3 11 -2 14 -11 3 -8 30 -26 60 -40 62 -28
89 -23 106 22 6 14 14 23 18 20 19 -11 37 15 41 59 1 6 6 3 12 -5 9 -12 10
-10 6 8 -4 15 -1 22 6 19 24 -8 67 33 67 64 0 22 5 29 20 29 11 0 20 6 20 13
0 6 5 4 11 -5 5 -10 15 -18 20 -18 6 0 18 -8 27 -17 16 -16 17 -15 20 11 3 23
6 25 18 15 12 -10 13 -8 6 12 -11 29 3 74 19 63 8 -5 8 -9 -1 -14 -8 -5 -11
-19 -7 -36 2 -15 0 -40 -5 -56 -8 -22 -7 -33 2 -41 10 -9 11 -9 6 1 -4 6 -2
12 3 12 6 0 11 -5 11 -11 0 -15 51 -59 68 -59 6 0 12 -8 12 -19 0 -13 21 -29
76 -55 79 -38 88 -41 80 -28 -3 5 1 9 9 9 8 0 15 -6 15 -13 0 -26 24 -27 46
-1 15 17 24 22 28 14 3 -8 9 -7 19 6 13 15 16 16 27 2 9 -10 17 -12 23 -6 5 5
16 7 23 4 8 -3 14 1 14 9 0 8 7 15 15 15 12 0 12 -3 2 -16 -10 -12 -9 -14 6
-8 10 4 21 7 23 7 3 0 3 3 1 8 -3 4 -1 27 3 52 6 43 7 44 18 20 6 -14 11 -19
11 -12 1 14 21 17 21 2 0 -5 -9 -19 -20 -30 -26 -26 -25 -40 3 -40 42 -1 84
-7 95 -13 6 -4 13 2 17 13 3 11 15 25 26 31 19 10 20 8 17 -17 -3 -25 1 -29
26 -31 29 -2 56 16 56 37 0 6 5 8 10 5 6 -3 10 -1 10 5 0 6 4 9 9 5 16 -10 22
12 10 42 -16 39 -21 85 -9 78 6 -3 7 1 4 9 -4 12 0 16 16 16 22 0 22 -1 6 -25
-12 -18 -15 -36 -10 -60 7 -41 21 -54 31 -29 6 16 7 16 19 -1 12 -16 14 -16
28 -2 9 9 16 20 16 26 0 6 5 11 10 11 6 0 10 -5 10 -11 0 -6 6 -5 13 3 9 9 12
30 10 64 -4 46 -2 52 18 57 15 4 20 11 15 22 -3 9 -2 13 4 10 5 -3 18 4 29 17
25 26 37 19 21 -12 -8 -15 -8 -20 -1 -16 6 4 11 1 11 -7 0 -24 -13 -28 -32
-10 -10 9 -18 14 -19 12 -1 -2 -2 -18 -4 -36 -2 -24 2 -33 16 -36 12 -3 19 0
19 9 0 25 19 15 26 -13 10 -50 17 -60 22 -38 2 11 8 25 14 32 6 7 5 14 -2 18
-5 3 -10 0 -10 -7 0 -8 -4 -6 -11 4 -10 19 -3 85 11 93 5 3 6 13 3 23 -2 10 0
34 5 53 6 19 11 26 11 16 1 -10 5 -16 10 -13 5 3 11 -6 14 -19 2 -14 0 -28 -5
-31 -6 -4 -8 -21 -6 -39 3 -30 2 -32 -14 -24 -16 9 -17 7 -6 -16 8 -19 14 -22
20 -13 5 8 6 -2 2 -23 -7 -43 11 -62 25 -27 6 13 10 17 10 10 1 -7 6 -10 12
-6 7 4 9 22 6 45 -4 27 -1 39 10 43 20 8 23 8 23 -5 0 -5 -4 -7 -10 -4 -6 3
-10 -5 -10 -19 0 -39 18 -41 63 -8 46 33 54 55 20 60 -25 4 -39 30 -15 28 10
-1 27 -7 40 -14 20 -12 26 -11 44 5 47 42 44 69 -10 96 -38 18 -55 49 -39 71
10 14 18 15 40 7 22 -9 27 -8 27 5 0 9 -5 12 -12 8 -7 -4 -8 -3 -4 4 4 7 16
12 27 12 10 0 19 6 19 13 0 8 4 7 10 -3 8 -13 10 -13 10 2 0 16 179 121 208
121 6 0 12 4 12 9 0 11 1 11 -61 -11 -57 -19 -219 -50 -256 -48 -12 1 -19 5
-16 10 3 4 10 6 16 4 7 -2 17 3 24 12 11 14 12 14 13 -2 0 -10 5 -15 10 -12 6
4 8 15 5 25 -3 10 -1 21 5 25 5 3 10 1 10 -4 0 -6 5 -11 10 -11 21 0 9 28 -15
32 -14 3 -25 2 -25 -2 0 -5 -21 -10 -47 -12 -39 -3 -47 0 -51 16 -5 19 -5 19
-19 0 -14 -18 -15 -18 -27 -1 -8 10 -20 15 -29 11 -17 -6 -37 23 -37 55 0 27
16 27 32 1 13 -20 38 -28 38 -12 0 5 -11 19 -25 32 -14 13 -25 32 -25 42 0 22
-7 23 -25 4 -11 -10 -11 -16 -2 -26 9 -10 9 -11 0 -6 -6 3 -15 1 -19 -5 -4 -8
-9 -7 -15 2 -7 11 -9 11 -9 1 0 -9 -8 -7 -27 8 -33 26 -43 14 -36 -44 5 -38 4
-39 -9 -22 -8 10 -17 15 -20 10 -16 -26 -31 -108 -30 -171 0 -43 -4 -73 -10
-73 -6 0 -8 -10 -4 -23 3 -13 -1 -32 -9 -44 -8 -11 -16 -35 -17 -52 -2 -34
-15 -41 -25 -14 -4 9 -1 19 5 21 15 5 16 79 1 88 -8 4 -9 -4 -5 -27 5 -29 4
-30 -4 -11 -5 13 -14 20 -20 17 -5 -3 -10 1 -10 10 0 9 3 14 8 12 9 -6 9 89
-1 99 -4 4 -10 4 -14 0 -4 -4 -1 -11 6 -15 11 -7 11 -14 -3 -42 -16 -33 -13
-99 5 -99 5 0 9 -11 9 -25 0 -14 -4 -25 -10 -25 -5 0 -11 -10 -11 -22 -1 -17
-2 -19 -6 -5 -2 9 -8 17 -13 17 -5 0 -11 -8 -13 -17 -2 -10 -2 7 0 37 3 41 2
51 -6 40 -6 -8 -11 -10 -12 -5 0 6 -4 1 -9 -10 -8 -19 -9 -19 -9 3 -1 13 -5
20 -11 17 -5 -3 -10 -2 -10 4 0 6 -6 8 -13 5 -10 -3 -13 3 -9 24 2 16 -1 33
-7 36 -7 5 -11 -4 -11 -23 0 -16 -4 -33 -10 -36 -5 -3 -10 1 -10 10 0 9 -5 13
-10 10 -6 -4 -10 -12 -9 -18 5 -38 -1 -48 -21 -37 -26 14 -50 -7 -51 -47 0
-15 -3 -22 -6 -15 -2 6 -8 10 -13 7 -4 -3 -8 15 -8 39 1 33 5 43 17 42 11 -1
17 9 19 32 2 17 7 32 13 32 13 0 11 23 -5 61 l-15 34 3 -40 c3 -45 -21 -106
-34 -85 -11 18 -34 -25 -27 -51 3 -10 1 -17 -4 -13 -5 3 -9 13 -9 24 0 18 -23
34 -34 23 -3 -4 -6 -17 -6 -30 0 -13 -4 -23 -10 -23 -5 0 -10 17 -10 38 0 27
-3 33 -10 22 -5 -8 -7 -24 -5 -35 3 -11 2 -14 -1 -7 -8 17 -24 15 -24 -2 0 -8
-5 -18 -11 -22 -16 -9 -1 36 19 59 15 16 14 21 -3 53 -10 19 -21 32 -23 29 -3
-3 0 -11 6 -17 17 -17 15 -45 -3 -52 -8 -3 -15 -18 -15 -33 l-1 -28 -14 25
-13 25 -11 -27 c-6 -16 -13 -28 -15 -28 -3 0 -3 7 0 15 8 19 -3 19 -23 0 -8
-9 -18 -13 -21 -10 -8 7 38 55 52 52 6 -1 11 20 13 56 2 67 -11 76 -22 15 l-7
-43 -15 34 c-7 18 -12 38 -9 45 2 6 5 3 5 -6 1 -28 21 -21 21 7 0 14 5 25 10
25 6 0 10 7 10 15 0 8 5 15 11 15 5 0 8 -4 4 -10 -9 -15 6 -60 21 -60 8 0 14
5 14 10 0 6 -3 10 -7 10 -5 0 -8 14 -8 30 0 17 3 30 8 30 4 0 7 -4 7 -10 0
-18 19 -10 25 11 6 16 9 18 15 8 5 -7 4 -21 -1 -30 -6 -11 -5 -20 1 -24 12 -8
33 43 27 67 -3 12 4 21 24 30 16 7 29 17 30 23 1 5 4 -1 8 -14 4 -14 12 -26
20 -29 10 -3 11 0 1 18 -9 16 -9 20 -1 15 8 -5 10 1 5 19 -7 31 4 54 18 35 7
-10 7 -7 3 8 -4 16 4 33 32 65 56 64 67 78 61 78 -2 0 -34 -31 -70 -69z m-565
-292 c4 -16 3 -18 -9 -8 -7 6 -11 15 -8 20 8 13 11 11 17 -12z m42 1 c3 -5 1
-10 -4 -10 -6 0 -11 5 -11 10 0 6 2 10 4 10 3 0 8 -4 11 -10z m224 -33 c0 -21
-1 -21 -9 -2 -5 12 -9 14 -9 6 -1 -8 -3 -12 -6 -9 -9 8 6 38 16 32 5 -3 9 -15
8 -27z m-179 -13 c0 -8 -5 -12 -10 -9 -6 4 -8 11 -5 16 9 14 15 11 15 -7z
m-319 -17 c-10 -9 -11 -8 -5 6 3 10 9 15 12 12 3 -3 0 -11 -7 -18z m81 -19
c-5 -21 -6 -21 -12 -2 -8 21 -3 37 10 29 4 -3 6 -15 2 -27z m365 0 c-3 -7 -5
-2 -5 12 0 14 2 19 5 13 2 -7 2 -19 0 -25z m932 -27 c0 -12 -2 -12 -8 3 -5 14
-10 16 -15 8 -4 -7 -11 -12 -17 -12 -14 0 -11 28 4 33 16 6 37 -12 36 -32z
m-1249 3 c0 -8 -4 -14 -10 -14 -5 0 -10 9 -10 21 0 11 5 17 10 14 6 -3 10 -13
10 -21z m1182 4 c2 -13 9 -22 17 -20 9 2 11 -3 7 -13 -3 -9 -6 -22 -6 -28 0
-8 -3 -8 -11 0 -14 14 -29 83 -19 83 5 0 10 -10 12 -22z m-872 -8 c0 -5 -5
-10 -11 -10 -5 0 -7 5 -4 10 3 6 8 10 11 10 2 0 4 -4 4 -10z m-536 -79 c-5
-13 -9 -11 -15 9 -8 22 -8 21 -5 -8 3 -37 -9 -31 -19 11 -5 17 -3 27 4 27 6 0
11 8 11 18 0 11 5 7 15 -12 9 -16 13 -37 9 -45z m66 46 c0 -13 -8 -32 -19 -41
-16 -15 -19 -15 -24 -2 -4 9 -1 15 6 13 7 -1 11 6 11 15 -1 10 3 15 9 11 6 -4
8 0 4 10 -3 10 -2 17 3 17 6 0 10 -11 10 -23z m960 -12 c0 -5 -5 -3 -10 5 -5
8 -10 20 -10 25 0 6 5 3 10 -5 5 -8 10 -19 10 -25z m444 -1 c-8 -30 11 -32 20
-1 6 20 7 20 16 5 8 -12 7 -23 -1 -36 -11 -18 -14 -18 -41 -3 -16 9 -26 22
-23 29 3 8 5 20 5 28 0 8 6 11 15 8 10 -4 13 -14 9 -30z m-1249 7 c3 -5 1 -12
-5 -16 -5 -3 -10 -18 -10 -33 0 -18 -3 -23 -9 -14 -6 10 -8 55 -2 70 3 6 20 1
26 -7z m320 0 c3 -5 1 -12 -4 -15 -5 -3 -11 1 -15 9 -6 16 9 21 19 6z m806 -4
c-1 -4 -1 -19 -1 -34 0 -14 -3 -23 -7 -19 -11 11 -12 67 -1 64 5 -2 9 -7 9
-11z m-561 -27 c0 -32 -6 -36 -30 -20 -10 6 -11 10 -2 10 6 0 12 9 12 20 0 11
5 20 10 20 6 0 10 -13 10 -30z m-232 -17 c-14 -13 -16 -13 -22 2 -4 13 -2 16
9 11 10 -3 15 1 16 12 0 12 2 13 6 4 3 -8 -1 -21 -9 -29z m118 7 c20 18 40 -1
26 -25 -7 -13 -11 -15 -17 -5 -6 9 -11 7 -20 -10 l-12 -22 -6 21 c-3 11 -1 19
4 15 5 -3 9 -1 9 5 0 5 -4 13 -10 16 -5 3 -10 14 -9 23 0 12 3 10 10 -7 8 -20
12 -21 25 -11z m131 8 c-3 -8 -6 -5 -6 6 -1 11 2 17 5 13 3 -3 4 -12 1 -19z
m-986 -11 c-10 -9 -11 -8 -5 6 3 10 9 15 12 12 3 -3 0 -11 -7 -18z m1006 1
c-3 -8 -6 -5 -6 6 -1 11 2 17 5 13 3 -3 4 -12 1 -19z m-695 -20 c-9 -9 -12 -7
-12 12 0 19 3 21 12 12 9 -9 9 -15 0 -24z m1156 -5 c-12 -14 -38 -6 -38 12 0
18 22 24 36 11 8 -7 9 -15 2 -23z m-821 5 c-3 -8 -6 -5 -6 6 -1 11 2 17 5 13
3 -3 4 -12 1 -19z m147 8 c-3 -8 -1 -17 5 -21 6 -3 11 -18 10 -33 -1 -26 -1
-26 -10 6 -5 17 -14 32 -21 32 -7 0 -6 5 2 15 16 19 21 19 14 1z m620 -34 c-4
-9 -9 -30 -11 -47 -5 -36 -21 -57 -36 -48 -5 3 -7 2 -4 -3 3 -6 2 -16 -3 -24
-7 -11 -11 -7 -16 18 -4 17 -11 32 -15 32 -5 0 -6 12 -3 26 4 17 2 29 -7 35
-11 7 -11 9 -1 9 14 0 20 -12 25 -49 4 -24 36 -40 38 -18 2 44 11 80 21 91 15
17 23 2 12 -22z m-1339 8 c3 -5 1 -10 -4 -10 -6 0 -11 5 -11 10 0 6 2 10 4 10
3 0 8 -4 11 -10z m142 -41 c-13 -22 -13 -22 -20 18 -6 31 -6 32 12 16 16 -13
17 -20 8 -34z m270 29 c-3 -8 -6 -5 -6 6 -1 11 2 17 5 13 3 -3 4 -12 1 -19z
m-104 -8 c-3 -11 -7 -20 -9 -20 -2 0 -4 9 -4 20 0 11 4 20 9 20 5 0 7 -9 4
-20z m904 14 c-3 -3 -12 -4 -19 -1 -8 3 -5 6 6 6 11 1 17 -2 13 -5z m85 -16
c-7 -7 -12 -8 -12 -2 0 14 12 26 19 19 2 -3 -1 -11 -7 -17z m-1121 -25 c-10
-17 -10 -16 -11 3 0 23 13 41 18 25 2 -6 -1 -18 -7 -28z m-258 -7 c-3 -4 -9
-2 -14 5 -13 22 -11 31 5 17 8 -7 12 -17 9 -22z m34 12 c-3 -8 -6 -5 -6 6 -1
11 2 17 5 13 3 -3 4 -12 1 -19z m24 -1 c-10 -9 -11 -8 -5 6 3 10 9 15 12 12 3
-3 0 -11 -7 -18z m890 8 c5 4 6 -1 3 -9 -9 -24 -24 -19 -23 7 0 12 3 16 6 9 2
-6 9 -10 14 -7z m661 -22 c-3 -16 -7 -22 -10 -15 -4 13 4 42 11 42 2 0 2 -12
-1 -27z m-905 -20 c-3 -10 -5 -4 -5 12 0 17 2 24 5 18 2 -7 2 -21 0 -30z m53
-5 c-1 -8 -6 -6 -15 6 -20 26 -19 42 0 22 8 -8 15 -21 15 -28z m141 11 c10 -6
6 -9 -13 -9 -22 0 -25 4 -21 21 4 14 8 17 13 9 4 -7 14 -16 21 -21z m211 -14
c-9 -26 -18 -41 -20 -35 -2 5 -8 8 -13 4 -5 -3 -9 0 -9 5 0 6 7 11 15 11 8 0
15 3 14 8 -2 14 13 52 22 52 4 0 0 -20 -9 -45z m-612 19 c0 -8 -5 -12 -10 -9
-6 4 -8 11 -5 16 9 14 15 11 15 -7z m714 -17 c7 -6 6 -7 -4 -4 -8 2 -16 12
-17 23 -2 13 -1 15 4 4 3 -8 11 -19 17 -23z m-1154 11 c0 -4 -7 -8 -15 -8 -8
0 -15 4 -15 8 0 5 7 9 15 9 8 0 15 -4 15 -9z m744 -40 c6 -4 7 -10 3 -14 -11
-11 -24 6 -30 41 -6 29 -6 30 5 5 7 -14 17 -28 22 -32z m276 42 c0 -5 -4 -10
-10 -10 -5 0 -10 5 -10 10 0 6 5 10 10 10 6 0 10 -4 10 -10z m-810 -16 c0 -8
-4 -12 -10 -9 -5 3 -10 10 -10 16 0 5 5 9 10 9 6 0 10 -7 10 -16z m777 -11
c-3 -15 0 -34 6 -43 6 -11 7 -25 2 -36 -8 -16 -10 -14 -13 14 -2 18 -7 30 -12
27 -4 -3 -10 2 -14 10 -3 9 0 15 10 15 11 0 13 6 9 20 -4 12 -2 20 5 20 8 0
10 -10 7 -27z m-363 1 c3 -8 2 -12 -4 -9 -6 3 -10 10 -10 16 0 14 7 11 14 -7z
m315 -7 c0 -9 -2 -8 -6 1 -2 6 -10 9 -15 6 -7 -4 -8 -2 -4 5 9 13 26 5 25 -12z
m-812 -9 c-3 -8 -6 -5 -6 6 -1 11 2 17 5 13 3 -3 4 -12 1 -19z m1143 -3 c0
-22 -2 -24 -19 -13 -14 9 -16 14 -7 24 17 20 26 16 26 -11z m-1300 -6 c0 -11
-4 -18 -10 -14 -5 3 -7 12 -3 20 7 21 13 19 13 -6z m870 6 c6 -8 10 -22 7 -32
-4 -16 -6 -15 -12 4 -4 13 -11 20 -16 17 -5 -3 -9 2 -9 10 0 20 14 20 30 1z
m510 -16 c0 -11 -4 -17 -10 -14 -5 3 -10 13 -10 21 0 8 5 14 10 14 6 0 10 -9
10 -21z m-573 -11 c-3 -8 -6 -5 -6 6 -1 11 2 17 5 13 3 -3 4 -12 1 -19z m-680
-30 c-3 -7 -5 -2 -5 12 0 14 2 19 5 13 2 -7 2 -19 0 -25z m660 0 c-3 -7 -5 -2
-5 12 0 14 2 19 5 13 2 -7 2 -19 0 -25z m135 7 c-2 -14 -6 -25 -8 -25 -2 0 -4
11 -4 25 0 14 4 25 9 25 4 0 6 -11 3 -25z m268 15 c8 13 10 12 10 -2 0 -10 -4
-18 -9 -18 -5 0 -12 -13 -16 -30 -7 -32 -25 -51 -25 -27 0 8 -7 17 -15 21 -18
6 -20 27 -3 24 7 -2 17 7 22 19 7 16 13 19 18 10 6 -9 10 -8 18 3z m-334 -33
c8 -4 14 -20 14 -35 l-1 -27 -16 30 c-9 17 -20 33 -26 36 -5 4 -6 13 -1 20 6
10 9 10 12 -1 3 -8 11 -19 18 -23z m-109 1 c-3 -8 -6 -5 -6 6 -1 11 2 17 5 13
3 -3 4 -12 1 -19z m-640 -30 c-3 -8 -6 -5 -6 6 -1 11 2 17 5 13 3 -3 4 -12 1
-19z m1097 -2 c-6 -15 -24 -23 -24 -11 0 8 24 34 28 30 1 -1 0 -10 -4 -19z"/>
<path d="M4660 3210 c-11 -11 -17 -26 -14 -35 10 -24 -15 -17 -57 16 -35 27
-40 29 -46 13 -8 -21 46 -70 88 -79 18 -4 31 -16 37 -35 17 -47 38 -52 138
-28 98 22 107 27 95 46 -7 11 -23 10 -85 -8 -43 -12 -84 -19 -92 -16 -21 8
-17 49 6 64 29 18 26 60 -6 72 -35 14 -41 13 -64 -10z m50 -24 c0 -8 -4 -17
-9 -20 -10 -7 -23 19 -14 28 11 11 23 6 23 -8z"/>
<path d="M423 3143 c-9 -3 -10 -9 -1 -23 9 -14 20 -17 44 -13 29 5 35 1 53
-28 12 -19 24 -49 27 -67 6 -30 8 -32 22 -19 40 41 -34 158 -99 156 -19 0 -39
-3 -46 -6z"/>
<path d="M3820 3140 c0 -9 16 -39 35 -67 48 -71 46 -84 -8 -64 -19 7 -27 6
-31 -4 -7 -18 4 -84 15 -91 5 -3 9 -18 9 -34 0 -23 4 -28 16 -23 12 4 15 2 12
-8 -3 -8 11 -29 29 -47 24 -23 35 -44 38 -70 2 -20 4 -39 5 -42 0 -3 4 0 8 7
5 8 13 6 30 -7 13 -11 18 -21 12 -25 -5 -3 -10 -10 -10 -16 0 -13 28 -11 32 2
2 6 4 -8 5 -32 2 -47 18 -73 29 -46 5 13 15 7 50 -31 42 -44 44 -46 45 -22 1
14 0 30 -2 35 -1 6 -2 23 -1 39 1 16 -3 36 -8 45 -8 13 -9 11 -10 -9 0 -21 -7
-15 -39 35 -21 33 -35 62 -30 63 12 5 12 32 0 32 -5 0 -12 -6 -14 -12 -3 -8
-6 -6 -6 5 -1 9 -5 17 -11 17 -9 0 -40 51 -40 66 0 4 11 -3 25 -16 14 -13 25
-30 25 -37 0 -8 6 -13 13 -11 22 5 87 -55 87 -81 0 -13 3 -21 7 -17 5 4 6 35
5 69 -3 50 -10 72 -37 112 -41 62 -285 305 -285 285z"/>
<path d="M1221 3104 c0 -11 3 -14 6 -6 3 7 2 16 -1 19 -3 4 -6 -2 -5 -13z"/>
<path d="M3680 3101 c0 -12 5 -21 10 -21 6 0 10 6 10 14 0 8 -4 18 -10 21 -5
3 -10 -3 -10 -14z"/>
<path d="M1190 3075 c0 -8 4 -15 10 -15 5 0 7 7 4 15 -4 8 -8 15 -10 15 -2 0
-4 -7 -4 -15z"/>
<path d="M1237 3076 c-4 -10 -5 -21 -2 -24 9 -9 17 6 13 25 -3 17 -4 17 -11
-1z"/>
<path d="M2760 3070 c0 -5 5 -10 10 -10 6 0 10 5 10 10 0 6 -4 10 -10 10 -5 0
-10 -4 -10 -10z"/>
<path d="M3516 3073 c-2 -2 -1 -23 2 -45 4 -30 2 -39 -6 -34 -8 5 -12 -2 -11
-21 1 -17 3 -21 6 -10 2 9 13 17 24 17 10 0 19 7 19 15 0 8 -4 15 -9 15 -5 0
-11 11 -13 24 -4 17 -1 23 9 19 7 -3 13 1 13 9 0 13 -24 21 -34 11z"/>
<path d="M3601 3064 c0 -11 3 -14 6 -6 3 7 2 16 -1 19 -3 4 -6 -2 -5 -13z"/>
<path d="M2241 3054 c0 -11 3 -14 6 -6 3 7 2 16 -1 19 -3 4 -6 -2 -5 -13z"/>
<path d="M2297 3057 c-3 -8 -2 -20 3 -26 5 -9 8 -4 8 13 0 29 -3 32 -11 13z"/>
<path d="M3561 3054 c0 -11 3 -14 6 -6 3 7 2 16 -1 19 -3 4 -6 -2 -5 -13z"/>
<path d="M1171 3044 c0 -11 3 -14 6 -6 3 7 2 16 -1 19 -3 4 -6 -2 -5 -13z"/>
<path d="M2131 3044 c0 -11 3 -14 6 -6 3 7 2 16 -1 19 -3 4 -6 -2 -5 -13z"/>
<path d="M2341 3034 c0 -11 3 -14 6 -6 3 7 2 16 -1 19 -3 4 -6 -2 -5 -13z"/>
<path d="M3411 3034 c0 -11 3 -14 6 -6 3 7 2 16 -1 19 -3 4 -6 -2 -5 -13z"/>
<path d="M3470 3040 c0 -5 5 -10 10 -10 6 0 10 5 10 10 0 6 -4 10 -10 10 -5 0
-10 -4 -10 -10z"/>
<path d="M1191 3024 c0 -11 3 -14 6 -6 3 7 2 16 -1 19 -3 4 -6 -2 -5 -13z"/>
<path d="M1265 3028 c-4 -10 -11 -15 -16 -12 -5 3 -8 -4 -6 -15 4 -29 17 -39
17 -13 0 11 5 22 12 24 6 2 9 11 6 19 -5 11 -7 11 -13 -3z"/>
<path d="M1145 3017 c-4 -10 -5 -21 -1 -24 10 -10 18 4 13 24 -4 17 -4 17 -12
0z"/>
<path d="M2070 3020 c0 -6 7 -10 15 -10 8 0 15 2 15 4 0 2 -7 6 -15 10 -8 3
-15 1 -15 -4z"/>
<path d="M337 3013 c-4 -3 -7 -22 -7 -40 0 -25 8 -43 30 -64 43 -43 71 -37 89
20 13 41 15 43 27 26 19 -26 18 -105 -2 -134 -13 -18 -24 -22 -57 -19 -23 2
-42 -2 -44 -8 -5 -15 41 -34 82 -34 90 0 114 163 32 224 -34 25 -57 15 -72
-32 -5 -18 -12 -32 -16 -32 -17 0 -31 32 -26 59 4 21 2 31 -9 35 -19 7 -19 7
-27 -1z"/>
<path d="M1110 3000 c0 -11 5 -20 10 -20 6 0 10 9 10 20 0 11 -4 20 -10 20 -5
0 -10 -9 -10 -20z"/>
<path d="M3392 2975 c-26 -27 -38 -46 -31 -50 14 -9 99 64 99 85 0 20 -26 7
-68 -35z"/>
<path d="M2250 2999 c0 -5 5 -7 10 -4 6 3 10 8 10 11 0 2 -4 4 -10 4 -5 0 -10
-5 -10 -11z"/>
<path d="M2405 2999 c-4 -6 -5 -12 -2 -15 2 -3 7 2 10 11 7 17 1 20 -8 4z"/>
<path d="M4597 2995 c-7 -18 47 -74 84 -87 22 -7 29 -18 34 -50 4 -23 17 -50
30 -62 22 -21 22 -21 4 -51 -24 -39 -25 -97 -1 -118 14 -13 39 -17 108 -17 92
0 122 9 109 30 -5 8 -33 11 -94 9 l-86 -4 -3 40 c-2 34 4 49 38 95 22 30 45
56 49 58 17 6 22 -32 7 -44 -31 -22 -7 -72 27 -58 8 3 18 1 22 -5 3 -6 15 -11
26 -11 17 0 15 7 -18 75 -46 93 -65 102 -108 51 -35 -42 -53 -46 -60 -11 -3
14 -7 36 -10 48 -3 18 1 27 20 35 35 16 36 69 1 78 -45 11 -71 1 -74 -28 -4
-36 -11 -35 -52 7 -38 39 -45 42 -53 20z m168 -35 c0 -7 -6 -15 -12 -17 -8 -3
-13 4 -13 17 0 13 5 20 13 18 6 -3 12 -11 12 -18z m145 -189 c0 -14 -18 -23
-30 -16 -6 4 -8 11 -5 16 8 12 35 12 35 0z"/>
<path d="M1080 2985 c0 -8 -4 -15 -10 -15 -5 0 -10 -9 -10 -20 0 -11 5 -20 10
-20 6 0 10 9 10 20 0 11 5 20 10 20 6 0 10 7 10 15 0 8 -4 15 -10 15 -5 0 -10
-7 -10 -15z"/>
<path d="M2130 2985 c0 -12 -5 -26 -12 -33 -9 -9 -8 -12 4 -12 19 0 29 32 17
51 -7 11 -9 9 -9 -6z"/>
<path d="M1222 2955 c0 -16 2 -22 5 -12 2 9 2 23 0 30 -3 6 -5 -1 -5 -18z"/>
<path d="M1970 2966 c0 -8 4 -17 10 -21 5 -3 7 -13 4 -23 -2 -9 1 -7 7 5 12
23 6 53 -11 53 -5 0 -10 -6 -10 -14z"/>
<path d="M2030 2970 c0 -5 5 -10 11 -10 5 0 7 5 4 10 -3 6 -8 10 -11 10 -2 0
-4 -4 -4 -10z"/>
<path d="M2275 2947 c3 -42 10 -55 18 -35 2 8 -1 27 -8 43 l-13 30 3 -38z"/>
<path d="M3471 2964 c0 -11 3 -14 6 -6 3 7 2 16 -1 19 -3 4 -6 -2 -5 -13z"/>
<path d="M3451 2954 c0 -11 3 -14 6 -6 3 7 2 16 -1 19 -3 4 -6 -2 -5 -13z"/>
<path d="M3602 2950 c-14 -23 -16 -40 -3 -40 7 0 23 51 17 57 -1 1 -7 -7 -14
-17z"/>
<path d="M3647 2964 c-3 -5 3 -53 12 -106 13 -66 15 -100 8 -107 -7 -7 -2 -18
16 -35 15 -14 27 -30 27 -36 0 -13 37 -50 49 -50 12 0 -13 94 -36 134 -12 22
-13 30 -3 36 13 8 5 30 -11 30 -6 0 -7 -4 -4 -10 3 -5 4 -10 0 -10 -5 0 -26
45 -30 65 -1 6 -3 12 -4 15 -1 3 -4 15 -7 27 -3 17 0 21 12 16 11 -4 15 -2 13
6 -3 7 -8 12 -13 11 -5 -1 -12 4 -16 10 -4 7 -10 8 -13 4z"/>
<path d="M1190 2938 c0 -24 16 -48 32 -48 4 0 8 5 8 11 0 5 -4 7 -10 4 -6 -3
-10 5 -10 19 0 14 -4 28 -10 31 -6 3 -10 -4 -10 -17z"/>
<path d="M1900 2945 c0 -8 5 -15 10 -15 6 0 10 7 10 15 0 8 -4 15 -10 15 -5 0
-10 -7 -10 -15z"/>
<path d="M2065 2950 c-3 -5 -1 -10 4 -10 6 0 11 5 11 10 0 6 -2 10 -4 10 -3 0
-8 -4 -11 -10z"/>
<path d="M2235 2930 c3 -5 11 -10 16 -10 6 0 7 5 4 10 -3 6 -11 10 -16 10 -6
0 -7 -4 -4 -10z"/>
<path d="M2145 2920 c-3 -5 -1 -10 4 -10 6 0 11 5 11 10 0 6 -2 10 -4 10 -3 0
-8 -4 -11 -10z"/>
<path d="M2904 2910 c1 -14 6 -32 11 -40 9 -13 13 -13 33 6 19 18 20 23 7 28
-9 3 -14 2 -11 -3 3 -5 -1 -12 -9 -15 -12 -4 -14 0 -10 22 4 22 4 23 -3 7 l-9
-20 -6 20 c-4 15 -5 14 -3 -5z"/>
<path d="M1998 2895 c-7 -36 2 -75 18 -75 8 0 14 7 14 15 0 8 -4 15 -8 15 -5
0 -9 14 -10 31 -1 40 -8 47 -14 14z"/>
<path d="M2367 2906 c-4 -10 -5 -21 -2 -24 9 -9 17 6 13 25 -3 17 -4 17 -11
-1z"/>
<path d="M3690 2905 c0 -8 5 -15 10 -15 6 0 10 -8 10 -17 0 -15 2 -16 10 -3
13 20 20 9 22 -32 1 -30 4 -35 21 -30 17 4 19 1 15 -21 -5 -27 15 -46 28 -26
7 12 -15 69 -27 69 -5 0 -9 9 -9 20 0 11 -4 20 -10 20 -5 0 -10 10 -10 23 0
16 -3 18 -9 9 -7 -11 -9 -11 -14 2 -8 20 -37 21 -37 1z"/>
<path d="M3776 2905 c-3 -8 -1 -15 4 -15 6 0 10 7 10 15 0 8 -2 15 -4 15 -2 0
-6 -7 -10 -15z"/>
<path d="M1064 2902 c-7 -4 -8 -15 -4 -27 7 -18 9 -18 15 -3 9 23 3 39 -11 30z"/>
<path d="M2210 2902 c0 -4 4 -12 10 -18 5 -5 11 -22 12 -37 2 -24 4 -25 18
-12 10 11 12 18 4 23 -6 4 -14 17 -18 30 -7 21 -26 31 -26 14z"/>
<path d="M2391 2894 c0 -11 3 -14 6 -6 3 7 2 16 -1 19 -3 4 -6 -2 -5 -13z"/>
<path d="M3476 2888 c-9 -12 -13 -24 -9 -27 3 -3 8 0 10 7 3 6 11 12 19 12 8
0 14 7 14 15 0 22 -16 18 -34 -7z"/>
<path d="M3822 2890 c0 -14 2 -19 5 -12 2 6 2 18 0 25 -3 6 -5 1 -5 -13z"/>
<path d="M1878 2877 c-3 -19 -2 -25 4 -19 6 6 8 18 6 28 -3 14 -5 12 -10 -9z"/>
<path d="M2132 2880 c0 -14 2 -19 5 -12 2 6 2 18 0 25 -3 6 -5 1 -5 -13z"/>
<path d="M2182 2870 c0 -14 2 -19 5 -12 2 6 2 18 0 25 -3 6 -5 1 -5 -13z"/>
<path d="M1180 2853 c0 -21 3 -24 9 -14 5 8 7 20 4 28 -8 21 -13 15 -13 -14z"/>
<path d="M1127 2856 c-4 -10 -5 -21 -2 -24 9 -9 17 6 13 25 -3 17 -4 17 -11
-1z"/>
<path d="M2840 2849 c0 -11 5 -17 10 -14 6 3 10 13 10 21 0 8 -4 14 -10 14 -5
0 -10 -9 -10 -21z"/>
<path d="M2270 2840 c-13 -24 -13 -40 0 -20 6 10 10 11 10 3 0 -7 7 -13 15
-13 19 0 20 36 0 44 -8 3 -19 -3 -25 -14z"/>
<path d="M1090 2824 c0 -14 4 -23 9 -20 5 3 7 15 4 26 -7 28 -13 25 -13 -6z"/>
<path d="M2870 2838 c0 -7 -3 -23 -6 -35 -4 -14 -2 -23 5 -23 6 0 11 11 11 25
0 14 5 25 10 25 6 0 10 5 10 10 0 6 -7 10 -15 10 -8 0 -15 -6 -15 -12z"/>
<path d="M3616 2835 c-9 -26 -7 -32 5 -12 6 10 9 21 6 23 -2 3 -7 -2 -11 -11z"/>
<path d="M2807 2825 c-4 -8 -2 -17 3 -20 6 -4 10 3 10 14 0 25 -6 27 -13 6z"/>
<path d="M3821 2801 c-1 -25 2 -32 14 -28 11 5 12 1 5 -19 -13 -32 -13 -44 0
-44 6 0 10 11 10 25 0 18 4 23 15 18 13 -5 14 -2 4 21 -7 14 -18 26 -25 26 -7
0 -15 8 -17 18 -3 9 -5 2 -6 -17z"/>
<path d="M3651 2794 c0 -11 3 -14 6 -6 3 7 2 16 -1 19 -3 4 -6 -2 -5 -13z"/>
<path d="M1071 2774 c0 -11 3 -14 6 -6 3 7 2 16 -1 19 -3 4 -6 -2 -5 -13z"/>
<path d="M3590 2774 c0 -8 5 -12 10 -9 6 4 8 11 5 16 -9 14 -15 11 -15 -7z"/>
<path d="M3902 2747 c-7 -8 -6 -18 3 -31 13 -17 14 -16 13 13 -1 35 -2 36 -16
18z"/>
<path d="M3811 2724 c0 -11 3 -14 6 -6 3 7 2 16 -1 19 -3 4 -6 -2 -5 -13z"/>
<path d="M4070 2730 c0 -5 5 -10 10 -10 6 0 10 5 10 10 0 6 -4 10 -10 10 -5 0
-10 -4 -10 -10z"/>
<path d="M3855 2700 c-4 -6 -3 -16 3 -22 6 -6 12 -6 17 2 4 6 3 16 -3 22 -6 6
-12 6 -17 -2z"/>
<path d="M3825 2660 c3 -5 10 -10 16 -10 5 0 9 5 9 10 0 6 -7 10 -16 10 -8 0
-12 -4 -9 -10z"/>
<path d="M3924 2648 c-7 -12 25 -42 35 -32 3 3 -2 10 -12 15 -9 6 -15 14 -12
20 4 5 4 9 1 9 -3 0 -8 -5 -12 -12z"/>
<path d="M342 2624 c-45 -31 -11 -88 50 -82 27 2 34 8 38 31 l5 29 21 -24 c12
-12 29 -35 39 -51 14 -21 20 -25 31 -16 12 10 10 18 -9 52 -39 70 -121 99
-175 61z m48 -34 c0 -11 -7 -20 -15 -20 -27 0 -18 30 13 39 1 1 2 -8 2 -19z"/>
<path d="M3525 2570 c34 -73 35 -75 15 -80 -19 -4 -14 -13 45 -85 59 -71 65
-80 46 -83 -12 -2 -18 -8 -15 -14 4 -6 -13 2 -37 19 -24 17 -55 36 -68 43 -21
11 -23 10 -18 -4 4 -9 10 -23 14 -33 5 -14 2 -15 -25 -10 -26 5 -30 4 -25 -11
6 -16 5 -16 -13 0 -12 10 -41 18 -74 20 l-55 3 -30 62 c-16 34 -35 62 -42 62
-17 1 -27 62 -20 124 l6 52 -19 -55 c-11 -33 -19 -85 -20 -130 0 -41 -3 -85
-6 -98 l-7 -23 -22 21 -23 22 -7 -21 c-5 -17 -15 -21 -45 -21 -21 0 -46 -3
-56 -7 -15 -5 -16 -1 -10 43 4 27 10 60 13 74 4 20 2 22 -6 10 -9 -12 -10 -9
-5 13 5 24 3 27 -17 27 -18 0 -28 -10 -41 -40 -16 -40 -13 -51 10 -28 26 26
12 -29 -18 -68 -16 -21 -30 -47 -30 -56 0 -13 -8 -18 -31 -18 -28 0 -31 3 -27
25 6 31 -16 33 -52 5 -21 -17 -23 -21 -10 -30 17 -11 1 -14 -24 -4 -14 5 -14
8 -1 21 25 24 17 33 -27 33 -28 0 -51 -8 -74 -25 -31 -24 -104 -36 -104 -17 0
4 41 36 90 71 49 35 131 104 182 154 81 77 68 84 -15 8 -19 -17 -37 -25 -55
-23 -20 2 -54 -16 -130 -67 -62 -43 -102 -65 -102 -56 0 12 -5 12 -36 -1 -40
-17 -41 -14 -18 40 7 19 7 19 -22 -1 -60 -42 -132 -72 -180 -74 -32 -2 -67
-12 -101 -32 -56 -31 -67 -28 -31 10 l21 23 -54 0 c-30 -1 -81 -7 -114 -15
-75 -18 -80 -18 -65 0 11 13 1 15 -81 15 -98 0 -115 -5 -114 -30 0 -10 14 -17
40 -21 23 -4 -12 -7 -84 -8 -103 -1 -128 2 -143 16 -19 17 -40 21 -145 30 -51
4 -63 2 -63 -10 0 -12 -7 -13 -37 -6 -21 5 -58 9 -82 9 -43 0 -44 0 -26 -20
23 -26 9 -26 -30 0 -16 11 -44 20 -62 20 -18 0 -44 5 -58 12 -14 6 -27 9 -29
7 -9 -9 -16 -195 -8 -207 11 -17 42 -5 35 14 -6 17 13 19 23 3 7 -12 78 -10
404 11 85 5 276 14 423 19 177 7 274 14 283 22 9 8 18 8 27 1 7 -6 187 -12
462 -15 562 -8 902 -26 1220 -68 83 -10 153 -19 157 -19 4 0 15 25 24 56 17
59 12 124 -9 124 -7 0 -6 4 3 10 11 8 8 9 -12 4 -41 -9 -55 5 -27 28 l24 18
-28 -10 c-16 -5 -61 -10 -100 -10 -91 0 -177 32 -268 99 -52 39 -72 62 -102
117 -52 100 -73 122 -32 34z m-2242 -317 c-13 -2 -33 -2 -45 0 -13 2 -3 4 22
4 25 0 35 -2 23 -4z m1645 -20 c-10 -2 -26 -2 -35 0 -10 3 -2 5 17 5 19 0 27
-2 18 -5z"/>
<path d="M3016 2575 c-48 -74 -51 -80 -35 -68 15 12 64 93 56 93 -3 0 -12 -11
-21 -25z"/>
<path d="M4644 2585 c-8 -20 39 -92 66 -100 14 -4 20 -15 20 -33 0 -15 7 -38
16 -50 13 -19 24 -22 57 -20 42 3 60 21 32 32 -9 3 -25 1 -35 -4 -41 -22 -31
48 11 72 36 21 38 52 4 74 -33 22 -68 12 -81 -23 l-9 -28 -30 47 c-32 51 -42
57 -51 33z m160 -54 c3 -5 -1 -14 -9 -21 -13 -10 -15 -9 -15 9 0 21 14 28 24
12z"/>
<path d="M3956 2574 c-4 -9 -4 -19 -1 -22 3 -3 5 0 5 6 0 7 7 12 16 12 8 0 12
5 9 10 -9 15 -22 12 -29 -6z"/>
<path d="M2453 2544 c-3 -8 -1 -20 6 -27 8 -8 11 -4 11 16 0 30 -7 35 -17 11z"/>
<path d="M2487 2525 c-4 -8 -2 -17 3 -20 6 -4 10 3 10 14 0 25 -6 27 -13 6z"/>
<path d="M4646 2423 c-6 -15 8 -32 25 -33 13 0 17 28 6 39 -15 15 -24 14 -31
-6z"/>
<path d="M1235 2400 c-4 -6 -21 -17 -38 -24 -25 -11 -28 -15 -11 -15 11 -1 31
10 44 24 13 14 21 25 17 25 -3 0 -9 -5 -12 -10z"/>
<path d="M1381 2384 c0 -11 3 -14 6 -6 3 7 2 16 -1 19 -3 4 -6 -2 -5 -13z"/>
<path d="M1530 2382 c0 -26 59 -96 60 -71 0 9 -13 33 -30 54 -25 32 -30 34
-30 17z"/>
<path d="M340 2372 c-30 -24 -20 -53 25 -75 39 -19 56 -60 34 -83 -8 -7 -50
-19 -94 -25 -88 -13 -98 -17 -85 -39 7 -12 22 -11 106 4 132 25 155 50 116
127 -11 21 -15 44 -11 59 3 14 1 31 -4 38 -14 18 -61 15 -87 -6z m41 -45 c-7
-7 -12 -5 -17 7 -4 11 -1 21 7 27 17 11 26 -18 10 -34z"/>
<path d="M4634 2356 c-8 -20 24 -83 54 -106 28 -23 89 -26 116 -7 43 32 -16
103 -64 77 -11 -6 -20 -20 -20 -32 0 -29 -22 -9 -45 42 -19 42 -32 50 -41 26z
m154 -74 c2 -7 -4 -15 -13 -18 -20 -8 -27 -1 -19 20 7 18 25 17 32 -2z"/>
<path d="M4700 2178 c0 -22 223 -61 228 -40 6 21 -12 29 -87 36 -36 4 -83 9
-103 13 -30 4 -38 2 -38 -9z"/>
<path d="M2187 2146 c5 -30 2 -34 -21 -40 -29 -7 -40 -29 -48 -93 -6 -40 -5
-41 26 -46 35 -5 47 0 27 13 -8 4 -11 15 -8 24 4 9 2 16 -3 16 -6 0 -10 7 -10
15 0 8 5 15 11 15 5 0 8 4 5 9 -3 5 0 11 7 14 10 4 14 -13 15 -70 2 -59 -1
-73 -10 -66 -14 11 -296 38 -304 30 -3 -2 20 -8 50 -11 29 -4 67 -11 82 -16
l29 -8 -32 -1 c-18 -1 -111 6 -209 14 -97 9 -181 14 -188 12 -6 -2 21 -7 60
-11 39 -4 84 -11 100 -16 l29 -8 -35 -1 c-19 0 -172 8 -339 19 -168 11 -307
18 -309 15 -9 -9 24 -13 138 -19 63 -3 203 -17 311 -30 185 -24 201 -25 274
-11 78 15 305 11 305 -5 0 -10 -282 -24 -309 -15 -12 3 -37 1 -57 -5 l-36 -12
4 -62 3 -61 -42 1 c-24 1 -43 -2 -43 -6 0 -4 -9 -10 -20 -13 -15 -4 -20 -14
-20 -40 0 -36 12 -47 51 -47 15 0 19 -7 19 -30 0 -40 32 -102 66 -129 l27 -21
-132 0 c-81 0 -131 -4 -131 -10 0 -12 967 -12 1100 -1 56 5 69 8 39 9 l-46 2
46 48 c25 26 52 45 60 43 9 -3 12 0 7 7 -3 6 -3 36 0 66 7 55 7 56 38 52 17
-2 41 -4 54 -5 20 -1 22 -6 22 -56 0 -49 -2 -55 -21 -55 -16 0 -20 4 -15 18 5
14 4 14 -9 -2 -8 -11 -15 -29 -14 -40 0 -12 3 -15 6 -9 6 16 43 -1 43 -20 0
-12 -44 -37 -66 -37 -7 0 -15 -4 -19 -9 -3 -6 143 -11 382 -12 493 -3 493 -3
493 12 0 6 4 7 10 4 6 -3 7 1 4 10 -4 9 -13 13 -24 10 -26 -8 -114 -8 -140 0
-22 7 -21 9 21 29 24 11 45 29 47 38 5 24 -37 48 -97 55 -57 7 -66 23 -31 61
24 26 35 23 -112 24 -84 0 -98 3 -98 17 0 12 -30 24 -123 49 -330 88 -346 94
-353 114 -3 11 -8 17 -11 14 -3 -3 13 -41 36 -85 49 -95 51 -111 14 -111 -24
0 -32 8 -54 56 l-26 56 24 11 24 11 -37 37 c-20 21 -49 43 -65 49 -15 7 -30
19 -33 27 -5 13 2 14 41 9 27 -4 161 -9 298 -12 200 -4 252 -8 261 -20 9 -12
38 -12 185 -4 96 6 224 8 284 4 61 -4 108 -4 105 -1 -11 11 -195 57 -225 56
l-30 -1 30 -13 c29 -14 29 -14 5 -14 -14 0 -81 11 -150 24 -143 29 -166 30
-95 8 77 -25 30 -27 -102 -3 -174 30 -183 31 -124 11 30 -10 50 -20 45 -23 -5
-3 -72 5 -149 18 -157 26 -188 29 -130 9 36 -12 37 -13 12 -14 -15 -1 -93 8
-173 20 -81 11 -149 18 -152 15 -3 -4 6 -6 19 -7 13 0 42 -7 64 -15 40 -14 40
-14 -30 -8 -38 3 -73 8 -76 12 -4 4 -9 28 -13 55 -4 38 -3 47 9 47 8 0 15 7
15 16 0 11 -6 13 -19 9 -11 -3 -22 -1 -26 5 -4 6 -57 10 -137 10 l-130 0 6 30
c4 25 2 30 -14 30 -16 0 -18 -5 -13 -34z m-17 -60 c0 -2 -7 -9 -15 -16 -12
-10 -15 -10 -15 4 0 9 7 16 15 16 8 0 15 -2 15 -4z m180 -46 c0 -33 -4 -50
-12 -51 -10 0 -10 -2 0 -6 6 -2 12 -9 12 -15 0 -7 -18 -9 -50 -5 -54 6 -84 1
-74 -14 3 -5 0 -9 -5 -9 -7 0 -11 27 -11 69 l0 70 43 4 c105 9 97 13 97 -43z
m110 42 c0 -7 -21 -27 -68 -65 l-22 -19 2 46 1 46 44 0 c23 0 43 -3 43 -8z
m77 -148 c-3 -3 -12 -4 -19 -1 -8 3 -5 6 6 6 11 1 17 -2 13 -5z m-499 -21
c-10 -2 -26 -2 -35 0 -10 3 -2 5 17 5 19 0 27 -2 18 -5z m262 -63 c-27 -53
-34 -60 -60 -60 -30 0 -30 1 -30 54 0 60 1 61 88 65 l32 1 -30 -60z m-110 -5
c0 -42 -3 -55 -15 -55 -11 0 -15 12 -15 48 0 27 3 52 7 55 16 17 23 3 23 -48z
m642 -41 c14 -9 9 -124 -4 -123 -10 0 -49 68 -77 133 -3 8 65 0 81 -10z m256
-73 c52 -14 94 -30 95 -36 1 -6 -60 -11 -165 -12 l-168 -1 0 58 0 58 73 -20
c39 -11 114 -32 165 -47z m-524 24 c96 -46 83 -181 -20 -215 -89 -30 -174 55
-144 145 24 73 95 103 164 70z m-294 -45 c0 -5 -20 -10 -45 -10 -25 0 -45 5
-45 10 0 6 20 10 45 10 25 0 45 -4 45 -10z m-361 -25 c52 -26 61 -103 16 -145
-36 -34 -85 -37 -122 -6 -36 31 -46 69 -28 112 22 53 77 69 134 39z m1002 -37
c10 -13 18 -31 19 -40 0 -18 -33 -33 -50 -23 -6 4 -9 1 -8 -6 2 -6 -3 -14 -9
-16 -9 -3 -13 9 -13 45 0 27 3 52 7 55 13 13 35 7 54 -15z m150 0 c37 -45 20
-72 -36 -56 -16 4 -42 8 -57 8 -31 0 -36 17 -16 50 18 29 84 28 109 -2z m150
0 c37 -45 20 -72 -36 -56 -16 4 -42 8 -57 8 -31 0 -36 17 -16 50 18 29 84 28
109 -2z m150 0 c37 -45 20 -72 -36 -56 -16 4 -42 8 -57 8 -31 0 -36 17 -16 50
18 29 84 28 109 -2z m-1078 3 c37 -2 15 -20 -25 -19 -52 1 -78 7 -78 18 0 7
20 7 103 1z m-233 -11 c0 -5 -2 -10 -4 -10 -3 0 -8 5 -11 10 -3 6 -1 10 4 10
6 0 11 -4 11 -10z m60 0 c0 -5 -7 -10 -15 -10 -8 0 -15 5 -15 10 0 6 7 10 15
10 8 0 15 -4 15 -10z m6 -40 c14 -14 77 -16 82 -2 5 16 39 16 46 0 5 -10 7
-10 12 0 13 27 43 12 62 -30 10 -24 33 -57 51 -74 l32 -31 -53 -6 c-29 -4
-131 -7 -226 -7 l-173 0 34 34 c21 21 38 51 46 80 11 43 13 46 44 46 18 0 37
-4 43 -10z"/>
<path d="M2283 1993 c9 -2 23 -2 30 0 6 3 -1 5 -18 5 -16 0 -22 -2 -12 -5z"/>
<path d="M2520 1720 c0 -27 21 -45 48 -41 6 1 12 -2 12 -8 0 -5 -6 -12 -12
-14 -10 -4 -9 -8 2 -16 8 -6 12 -11 8 -12 -5 -1 -12 -3 -18 -4 -5 -1 -13 -3
-17 -4 -5 -1 -1 -6 7 -12 12 -8 10 -9 -7 -4 -20 5 -23 3 -23 -19 0 -36 32 -34
64 5 47 55 22 134 -46 152 -14 4 -18 -1 -18 -23z m35 -20 c3 -5 1 -10 -4 -10
-6 0 -11 5 -11 10 0 6 2 10 4 10 3 0 8 -4 11 -10z"/>
<path d="M1862 1663 c3 -20 29 -44 40 -37 4 2 6 -5 5 -16 -1 -11 -5 -20 -10
-20 -5 0 -6 -7 -3 -16 4 -11 2 -15 -8 -11 -12 5 -26 -11 -26 -29 0 -13 34 0
55 21 30 30 32 64 4 99 -24 30 -62 36 -57 9z"/>
<path d="M320 2109 c-107 -24 -101 -21 -86 -41 11 -16 18 -15 94 4 45 11 88
18 97 14 9 -3 15 -18 15 -38 0 -28 -7 -38 -50 -67 -54 -37 -59 -45 -34 -55 10
-4 30 4 50 19 47 36 62 32 76 -20 9 -32 17 -45 30 -45 28 0 24 65 -5 94 -18
18 -22 31 -19 68 3 37 0 50 -17 67 -25 25 -40 25 -151 0z"/>
<path d="M1168 2113 c34 -2 88 -2 120 0 31 2 3 3 -63 3 -66 0 -92 -1 -57 -3z"/>
<path d="M1483 2103 c9 -2 25 -2 35 0 9 3 1 5 -18 5 -19 0 -27 -2 -17 -5z"/>
<path d="M1228 2083 c34 -2 90 -2 125 0 34 2 6 3 -63 3 -69 0 -97 -1 -62 -3z"/>
<path d="M1528 2073 c12 -2 32 -2 45 0 12 2 2 4 -23 4 -25 0 -35 -2 -22 -4z"/>
<path d="M1968 2073 c7 -3 16 -2 19 1 4 3 -2 6 -13 5 -11 0 -14 -3 -6 -6z"/>
<path d="M1683 2063 c9 -2 23 -2 30 0 6 3 -1 5 -18 5 -16 0 -22 -2 -12 -5z"/>
<path d="M1268 2053 c17 -2 47 -2 65 0 17 2 3 4 -33 4 -36 0 -50 -2 -32 -4z"/>
<path d="M1808 2053 c7 -3 16 -2 19 1 4 3 -2 6 -13 5 -11 0 -14 -3 -6 -6z"/>
<path d="M1473 2043 c9 -2 23 -2 30 0 6 3 -1 5 -18 5 -16 0 -22 -2 -12 -5z"/>
<path d="M4670 2030 c0 -22 35 -28 44 -7 3 8 9 6 20 -7 14 -17 16 -17 16 -3 0
19 -29 37 -59 37 -14 0 -21 -6 -21 -20z"/>
<path d="M1618 2033 c7 -3 16 -2 19 1 4 3 -2 6 -13 5 -11 0 -14 -3 -6 -6z"/>
<path d="M1193 2023 c15 -2 37 -2 50 0 12 2 0 4 -28 4 -27 0 -38 -2 -22 -4z"/>
<path d="M1388 2013 c6 -2 18 -2 25 0 6 3 1 5 -13 5 -14 0 -19 -2 -12 -5z"/>
<path d="M2728 2003 c7 -3 16 -2 19 1 4 3 -2 6 -13 5 -11 0 -14 -3 -6 -6z"/>
<path d="M2778 1993 c7 -3 16 -2 19 1 4 3 -2 6 -13 5 -11 0 -14 -3 -6 -6z"/>
<path d="M4583 1990 c-50 -20 -77 -114 -49 -168 21 -40 31 -40 56 1 16 25 20
28 20 12 -1 -11 -7 -31 -15 -45 -22 -38 -18 -66 11 -89 34 -26 77 -28 72 -3
-2 10 -14 18 -32 20 -21 3 -27 8 -22 20 29 88 30 100 13 126 -23 34 -33 33
-57 -6 -18 -29 -20 -30 -20 -11 0 37 31 102 51 108 11 4 30 0 43 -9 13 -8 26
-12 30 -9 14 14 4 32 -28 47 -38 18 -42 18 -73 6z"/>
<path d="M2063 1983 c9 -2 23 -2 30 0 6 3 -1 5 -18 5 -16 0 -22 -2 -12 -5z"/>
<path d="M1813 1973 c9 -2 23 -2 30 0 6 3 -1 5 -18 5 -16 0 -22 -2 -12 -5z"/>
<path d="M1528 1963 c6 -2 18 -2 25 0 6 3 1 5 -13 5 -14 0 -19 -2 -12 -5z"/>
<path d="M4425 1960 c-10 -16 5 -32 23 -25 8 3 19 0 23 -6 4 -7 15 -9 24 -5
14 5 15 9 5 21 -6 7 -17 12 -25 9 -7 -3 -16 -1 -20 5 -8 14 -22 14 -30 1z"/>
<path d="M3768 1930 c23 -11 50 -16 59 -13 13 5 9 9 -18 19 -19 7 -45 13 -59
13 -20 0 -17 -4 18 -19z"/>
<path d="M1903 1893 c9 -2 23 -2 30 0 6 3 -1 5 -18 5 -16 0 -22 -2 -12 -5z"/>
<path d="M1838 1883 c7 -3 16 -2 19 1 4 3 -2 6 -13 5 -11 0 -14 -3 -6 -6z"/>
<path d="M426 1802 c-96 -36 -124 -56 -93 -67 16 -7 221 75 228 90 9 21 -39
12 -135 -23z"/>
<path d="M522 1743 l-26 -26 22 -10 c17 -8 25 -5 40 13 22 27 49 24 107 -15
30 -21 40 -24 46 -13 14 21 11 26 -34 53 -60 35 -119 34 -155 -2z"/>
<path d="M4481 1751 c-19 -12 -9 -85 16 -120 19 -26 19 -27 -4 -66 -44 -76
-19 -133 54 -122 21 3 46 8 56 12 21 9 22 -10 3 -82 -12 -45 -12 -54 0 -64 8
-7 17 -10 19 -7 3 3 12 40 20 82 11 55 12 83 5 97 -13 23 -22 24 -82 2 -26 -9
-50 -14 -54 -10 -19 18 36 117 65 117 34 0 14 38 -23 42 -29 3 -32 6 -46 65
-12 49 -18 60 -29 54z"/>
<path d="M4737 1689 c-14 -8 -15 -14 -6 -31 10 -18 13 -19 26 -5 21 21 5 50
-20 36z"/>
<path d="M622 1623 c-21 -16 -22 -21 -11 -51 6 -18 8 -36 5 -40 -12 -12 -48
21 -62 56 -1 1 -9 0 -18 -4 -47 -18 11 -84 74 -84 50 0 67 20 50 59 -22 53 -6
59 39 14 37 -37 42 -47 39 -80 -3 -33 -7 -39 -35 -48 -35 -10 -42 -22 -18 -31
44 -17 105 28 105 77 0 95 -109 180 -168 132z"/>
<path d="M1736 1377 c-63 -11 -68 -13 -52 -27 15 -12 62 -13 295 -10 452 8
1251 2 1321 -9 62 -10 66 -10 88 13 l24 23 -218 8 c-181 6 -537 7 -1099 1 -44
0 -127 3 -185 6 -67 5 -130 3 -174 -5z"/>
<path d="M2400 1310 c0 -5 4 -10 9 -10 6 0 13 5 16 10 3 6 -1 10 -9 10 -9 0
-16 -4 -16 -10z"/>
<path d="M3111 1311 c-12 -8 -9 -11 13 -17 16 -4 32 -2 39 5 8 8 8 11 0 11 -6
0 -17 2 -25 5 -7 3 -20 1 -27 -4z"/>
<path d="M4321 1294 c-54 -69 0 -137 94 -120 31 6 34 9 25 26 -9 16 -18 18
-60 13 -43 -5 -50 -3 -50 11 0 10 13 30 28 45 15 16 26 33 24 40 -7 20 -40 12
-61 -15z"/>
<path d="M2327 1293 c-12 -12 5 -23 34 -23 16 0 29 5 29 11 0 5 -8 9 -17 7
-10 -1 -23 1 -29 4 -6 4 -14 5 -17 1z"/>
<path d="M1935 1275 c-55 -7 -111 -14 -124 -14 -23 -1 -22 -3 15 -30 21 -15
51 -31 66 -35 16 -3 49 -20 75 -36 l47 -30 519 0 520 0 63 35 c34 19 68 35 76
35 7 0 27 9 43 21 l30 21 -136 -7 c-106 -5 -139 -4 -150 7 -11 10 -99 13 -429
13 -379 0 -417 2 -440 18 -28 19 -36 19 -175 2z"/>
<path d="M1997 426 c-26 -85 -47 -162 -47 -170 0 -11 9 -16 29 -16 29 0 31 3
56 88 14 48 29 94 32 102 8 17 21 -71 22 -147 1 -41 5 -55 20 -63 41 -21 51
-12 102 92 l49 103 -6 -111 -6 -111 29 -6 c15 -3 30 -3 33 0 6 6 18 172 19
276 l1 77 -29 0 c-28 0 -34 -8 -92 -120 -35 -66 -64 -118 -66 -117 -1 2 -9 60
-17 130 -8 70 -18 132 -21 137 -3 6 -19 10 -34 10 -27 0 -29 -3 -74 -154z"/>
<path d="M2868 553 c-16 -2 -28 -7 -28 -10 0 -3 12 -69 27 -146 31 -167 48
-194 111 -182 112 20 132 27 132 43 0 37 -13 43 -73 31 -42 -9 -60 -9 -70 0
-8 6 -24 69 -37 141 -13 71 -26 129 -29 129 -3 -1 -18 -4 -33 -6z"/>
<path d="M2726 531 c-3 -4 2 -83 11 -175 l17 -166 34 0 35 0 -6 53 c-3 28 -11
107 -18 175 l-12 122 -28 0 c-15 0 -30 -4 -33 -9z"/>
<path d="M2497 523 c-8 -13 -107 -321 -107 -333 0 -5 15 -10 34 -10 31 0 34 3
40 35 l7 35 65 0 c64 0 65 0 71 -31 6 -34 19 -42 56 -37 l25 3 -52 170 -52
170 -41 3 c-23 2 -44 -1 -46 -5z m67 -142 c9 -35 15 -66 12 -68 -2 -2 -22 -3
-43 -1 l-39 3 19 73 c11 40 23 69 27 65 4 -4 14 -37 24 -72z"/>
</g>
</svg>
